# xmcd
# 
# Track frame offsets:
#     150
#     11890
#     24695
#     38267
#     49247
#     62137
#     74070
#     88262
#     106045
#     124992
#     135205
# 
# Disc length: 2032
# 
# Revision: 0
# Processed by: cddbd v1.5.2PL0 Copyright (c) Steve Scherf et al.
# Submitted via: fre:ac v1.0.17
# 
DISCID=9507ee0b
DTITLE=The Long Ryders - Native Sons
DYEAR=1984
DGENRE=Country
TTITLE0=Final Wild Son
TTITLE1=Still Get By
TTITLE2=Ivory Tower
TTITLE3=Run Dusty Run
TTITLE4=(Sweet) Mental Revenge
TTITLE5=Fair Game
TTITLE6=Tell It To The Judge On Sunday
TTITLE7=Wreck Of The 809
TTITLE8=Too Close To The Light
TTITLE9=Never Got To Meet The Mom
TTITLE10=I Had A Dream
EXTD=
EXTT0=
EXTT1=
EXTT2=
EXTT3=
EXTT4=
EXTT5=
EXTT6=
EXTT7=
EXTT8=
EXTT9=
EXTT10=
PLAYORDER=
